<?xml version="1.0" encoding="UTF-8" standalone="no"?>
<!-- Created with Inkscape (http://www.inkscape.org/) -->

<svg
   xmlns:dc="http://purl.org/dc/elements/1.1/"
   xmlns:cc="http://creativecommons.org/ns#"
   xmlns:rdf="http://www.w3.org/1999/02/22-rdf-syntax-ns#"
   xmlns:svg="http://www.w3.org/2000/svg"
   xmlns="http://www.w3.org/2000/svg"
   xmlns:sodipodi="http://sodipodi.sourceforge.net/DTD/sodipodi-0.dtd"
   xmlns:inkscape="http://www.inkscape.org/namespaces/inkscape"
   width="608"
   height="608"
   id="svg2"
   version="1.1"
   inkscape:version="0.48.1 r9760"
   sodipodi:docname="New document 1">
  <defs
     id="defs4" />
  <sodipodi:namedview
     id="base"
     pagecolor="#ffffff"
     bordercolor="#666666"
     borderopacity="1.0"
     inkscape:pageopacity="0.0"
     inkscape:pageshadow="2"
     inkscape:zoom="0.70710678"
     inkscape:cx="228.1854"
     inkscape:cy="338.80348"
     inkscape:document-units="px"
     inkscape:current-layer="layer1"
     showgrid="false"
     fit-margin-top="0"
     fit-margin-left="0"
     fit-margin-right="0"
     fit-margin-bottom="0"
     inkscape:window-width="1680"
     inkscape:window-height="978"
     inkscape:window-x="1280"
     inkscape:window-y="25"
     inkscape:window-maximized="1" />
  <metadata
     id="metadata7">
    <rdf:RDF>
      <cc:Work
         rdf:about="">
        <dc:format>image/svg+xml</dc:format>
        <dc:type
           rdf:resource="http://purl.org/dc/dcmitype/StillImage" />
        <dc:title></dc:title>
      </cc:Work>
    </rdf:RDF>
  </metadata>
  <g
     inkscape:label="Layer 1"
     inkscape:groupmode="layer"
     id="layer1"
     transform="translate(-40,-231.375)">
    <path
       style="fill:#000000;fill-opacity:1;stroke:none"
       d="m 344,231.375 c -167.89456,0 -304,136.10544 -304,304 0,167.89457 136.10544,304 304,304 167.89456,0 304,-136.10543 304,-304 0,-5.36375 -0.16308,-10.70454 -0.4375,-16 l -27.03125,0 c 0.30181,5.29714 0.46875,10.62729 0.46875,16 0,152.98288 -124.01712,277 -277,277 -152.98287,0 -277,-124.01712 -277,-277 0,-152.98287 124.01713,-277 277,-277 131.31363,0 241.29301,91.3667 269.8125,214 l 27.625,0 C 612.42855,334.70989 490.2961,231.375 344,231.375 z"
       id="path5238"
       inkscape:connector-curvature="0" />
    <path
       id="path5253"
       d="m 344,383.375 c -83.94728,0 -152,68.05272 -152,152 0,83.94728 68.05272,152 152,152 83.94728,0 152,-68.05272 152,-152 0,-2.68188 -0.0815,-5.35227 -0.21875,-8 l -13.51563,0 c 0.15091,2.64857 0.23438,5.31364 0.23438,8 0,76.49144 -62.00856,138.5 -138.5,138.5 -76.49144,0 -138.5,-62.00856 -138.5,-138.5 0,-76.49144 62.00856,-138.5 138.5,-138.5 65.65681,0 120.6465,45.68335 134.90625,107 l 13.8125,0 C 478.21427,435.04244 417.14805,383.375 344,383.375 z"
       style="fill:#000000;fill-opacity:1;stroke:none"
       inkscape:connector-curvature="0" />
    <path
       inkscape:connector-curvature="0"
       style="fill:#000000;fill-opacity:1;stroke:none"
       d="m 344,459.375 c -41.97364,0 -76,34.02636 -76,76 0,41.97364 34.02636,76 76,76 41.97364,0 76,-34.02636 76,-76 0,-1.34094 -0.0408,-2.67613 -0.10938,-4 l -6.75781,0 c 0.0754,1.32428 0.11719,2.65682 0.11719,4 0,38.24572 -31.00428,69.25 -69.25,69.25 -38.24572,0 -69.25,-31.00428 -69.25,-69.25 0,-38.24572 31.00428,-69.25 69.25,-69.25 32.8284,0 60.32325,22.84167 67.45312,53.5 l 6.90625,0 C 411.10713,485.20872 380.57402,459.375 344,459.375 z"
       id="path5255" />
    <path
       id="path5257"
       d="m 344,497.375 c -20.98682,0 -38,17.01318 -38,38 0,20.98682 17.01318,38 38,38 20.98682,0 38,-17.01318 38,-38 0,-0.67047 -0.0204,-1.33806 -0.0547,-2 l -3.3789,0 c 0.0377,0.66214 0.0586,1.32841 0.0586,2 0,19.12286 -15.50214,34.625 -34.625,34.625 -19.12286,0 -34.625,-15.50214 -34.625,-34.625 0,-19.12286 15.50214,-34.625 34.625,-34.625 16.4142,0 30.16163,11.42083 33.72656,26.75 l 3.45312,0 C 377.55356,510.29186 362.28701,497.375 344,497.375 z"
       style="fill:#000000;fill-opacity:1;stroke:none"
       inkscape:connector-curvature="0" />
    <path
       inkscape:connector-curvature="0"
       style="fill:#000000;fill-opacity:1;stroke:none"
       d="m 344,516.375 c -10.49341,0 -19,8.50659 -19,19 0,10.49341 8.50659,19 19,19 10.49341,0 19,-8.50659 19,-19 0,-0.33524 -0.0102,-0.66903 -0.0274,-1 l -1.68945,0 c 0.0188,0.33107 0.0293,0.66421 0.0293,1 0,9.56143 -7.75107,17.3125 -17.3125,17.3125 -9.56143,0 -17.3125,-7.75107 -17.3125,-17.3125 0,-9.56143 7.75107,-17.3125 17.3125,-17.3125 8.2071,0 15.08082,5.71041 16.86328,13.375 l 1.72656,0 C 360.77678,522.83343 353.1435,516.375 344,516.375 z"
       id="path5265" />
    <path
       style="fill:#000000;fill-opacity:1;stroke:none"
       d="m 620.75736,519.56668 2.06586,35.2981 L 344,533.86218 z"
       id="rect5248"
       inkscape:connector-curvature="0"
       sodipodi:nodetypes="cccc" />
  </g>
</svg>
